<?xml version="1.0" encoding="UTF-8" standalone="no"?>
<!-- Created with Inkscape (http://www.inkscape.org/) -->

<svg
   xmlns:dc="http://purl.org/dc/elements/1.1/"
   xmlns:cc="http://creativecommons.org/ns#"
   xmlns:rdf="http://www.w3.org/1999/02/22-rdf-syntax-ns#"
   xmlns:svg="http://www.w3.org/2000/svg"
   xmlns="http://www.w3.org/2000/svg"
   xmlns:sodipodi="http://sodipodi.sourceforge.net/DTD/sodipodi-0.dtd"
   xmlns:inkscape="http://www.inkscape.org/namespaces/inkscape"
   width="393"
   height="487.35999"
   id="svg3829"
   version="1.1"
   inkscape:version="0.48.3.1 r9886"
   sodipodi:docname="shoppinglist.svg">
  <defs
     id="defs3831" />
  <sodipodi:namedview
     id="base"
     pagecolor="#ffffff"
     bordercolor="#666666"
     borderopacity="1.0"
     inkscape:pageopacity="0.0"
     inkscape:pageshadow="2"
     inkscape:zoom="0.70710678"
     inkscape:cx="57.754956"
     inkscape:cy="260.27777"
     inkscape:document-units="px"
     inkscape:current-layer="layer1"
     showgrid="false"
     inkscape:window-width="1301"
     inkscape:window-height="744"
     inkscape:window-x="65"
     inkscape:window-y="24"
     inkscape:window-maximized="1">
    <inkscape:grid
       type="xygrid"
       id="grid3877" />
  </sodipodi:namedview>
  <metadata
     id="metadata3834">
    <rdf:RDF>
      <cc:Work
         rdf:about="">
        <dc:format>image/svg+xml</dc:format>
        <dc:type
           rdf:resource="http://purl.org/dc/dcmitype/StillImage" />
        <dc:title />
      </cc:Work>
    </rdf:RDF>
  </metadata>
  <g
     inkscape:label="Capa 1"
     inkscape:groupmode="layer"
     id="layer1"
     transform="translate(0,-565.00127)">
    <g
       id="g3879"
       style="fill:none;stroke:#000000;stroke-opacity:1">
      <path
         id="rect4351-92"
         style="fill:none;stroke:#000000;stroke-width:16.30661392000000021;stroke-linecap:butt;stroke-linejoin:round;stroke-miterlimit:4;stroke-opacity:1"
         d="m 131.69511,862.44373 137.12308,0 0,9.18929 -137.12308,0 z m -84.994026,-264.55475 251.863266,0 0,371.16009 -251.863266,0 z m 51.123092,269.14919 c 0,4.53503 -3.380951,8.2114 -7.551566,8.2114 -4.170616,0 -7.551566,-3.67637 -7.551566,-8.2114 0,-4.53503 3.38095,-8.21139 7.551566,-8.21139 4.170615,0 7.551566,3.67636 7.551566,8.21139 z m 33.870954,-56.98122 137.12308,0 0,9.18929 -137.12308,0 z m -33.870954,4.59441 c 0,4.53503 -3.380951,8.2114 -7.551566,8.2114 -4.170616,0 -7.551566,-3.67637 -7.551566,-8.2114 0,-4.53503 3.38095,-8.21139 7.551566,-8.21139 4.170615,0 7.551566,3.67636 7.551566,8.21139 z m 33.870934,-56.98126 137.12308,0 0,9.1893 -137.12308,0 z m -33.870934,4.5945 c 0,4.53503 -3.380951,8.2114 -7.551566,8.2114 -4.170616,0 -7.551566,-3.67637 -7.551566,-8.2114 0,-4.53503 3.38095,-8.21139 7.551566,-8.21139 4.170615,0 7.551566,3.67636 7.551566,8.21139 z m 33.870934,-56.98103 137.12308,0 0,9.1893 -137.12308,0 z m -33.870934,4.5944 c 0,4.53503 -3.380951,8.2114 -7.551566,8.2114 -4.170616,0 -7.551566,-3.67637 -7.551566,-8.2114 0,-4.53503 3.38095,-8.21139 7.551566,-8.21139 4.170615,0 7.551566,3.67636 7.551566,8.21139 z" />
    </g>
    <rect
       style="fill:none;stroke:none"
       id="rect3783"
       width="24.746891"
       height="71.798706"
       x="249.47986"
       y="860.97229"
       transform="matrix(0.99375441,0.11158933,0,1,0,0)" />
    <g
       id="g3817"
       transform="translate(-151.11289,-4.999472)"
       clip-path="none"
       style="fill:#ff0000;fill-opacity:1">
      <g
         id="g3967"
         transform="translate(-140,-70)"
         style="fill:#ff0000;fill-opacity:1">
        <path
           style="fill:#ff0000;fill-opacity:1;stroke:none"
           d="m 527.5271,869.813 0,98 -98,0 0,45.4688 98,0 0,97.9687 45.4375,0 0,-97.9687 98,0 0,-45.4688 -98,0 0,-98 -45.4375,0 z"
           id="rect3795"
           inkscape:connector-curvature="0" />
      </g>
    </g>
  </g>
</svg>
