<?xml version="1.0" encoding="UTF-8" standalone="no"?>
<!-- Created with Inkscape (http://www.inkscape.org/) -->

<svg
   xmlns:dc="http://purl.org/dc/elements/1.1/"
   xmlns:cc="http://creativecommons.org/ns#"
   xmlns:rdf="http://www.w3.org/1999/02/22-rdf-syntax-ns#"
   xmlns:svg="http://www.w3.org/2000/svg"
   xmlns="http://www.w3.org/2000/svg"
   xmlns:sodipodi="http://sodipodi.sourceforge.net/DTD/sodipodi-0.dtd"
   xmlns:inkscape="http://www.inkscape.org/namespaces/inkscape"
   width="295"
   height="295"
   id="svg2"
   version="1.1"
   inkscape:version="0.48.3.1 r9886"
   sodipodi:docname="notaproved.svg">
  <defs
     id="defs4" />
  <sodipodi:namedview
     id="base"
     pagecolor="#ffffff"
     bordercolor="#666666"
     borderopacity="1.0"
     inkscape:pageopacity="0.0"
     inkscape:pageshadow="2"
     inkscape:zoom="0.7"
     inkscape:cx="258.43445"
     inkscape:cy="423.55673"
     inkscape:document-units="px"
     inkscape:current-layer="layer1"
     showgrid="false"
     inkscape:window-width="1301"
     inkscape:window-height="744"
     inkscape:window-x="65"
     inkscape:window-y="24"
     inkscape:window-maximized="1" />
  <metadata
     id="metadata7">
    <rdf:RDF>
      <cc:Work
         rdf:about="">
        <dc:format>image/svg+xml</dc:format>
        <dc:type
           rdf:resource="http://purl.org/dc/dcmitype/StillImage" />
        <dc:title />
      </cc:Work>
    </rdf:RDF>
  </metadata>
  <g
     inkscape:label="Capa 1"
     inkscape:groupmode="layer"
     id="layer1"
     transform="translate(0,-757.36218)">
    <path
       style="fill:#ff0000;fill-opacity:1;stroke:none"
       d="M 149.15625 4.0625 C 147.91484 4.0619782 146.6857 4.0939137 145.4375 4.125 C 65.520098 6.1153393 2.3534107 72.520097 4.34375 152.4375 C 6.3340893 232.3549 72.707598 295.52159 152.625 293.53125 C 232.5424 291.54091 295.74034 225.13615 293.75 145.21875 L 293.75 145.125 C 291.74612 66.489591 227.36529 4.0953756 149.15625 4.0625 z M 104.875 70.75 L 150.6875 116.59375 L 196.53125 70.75 L 227.09375 101.34375 L 181.25 147.1875 L 227.09375 193.03125 L 196.53125 223.5625 L 150.6875 177.71875 L 104.875 223.5625 L 74.28125 193.03125 L 120.125 147.1875 L 74.28125 101.34375 L 104.875 70.75 z "
       id="path2985"
       transform="translate(0,757.36218)" />
    <flowRoot
       xml:space="preserve"
       id="flowRoot3765"
       style="font-size:40px;font-style:normal;font-weight:normal;line-height:125%;letter-spacing:0px;word-spacing:0px;fill:#000000;fill-opacity:1;stroke:none;font-family:Sans"
       transform="matrix(8.1180275,0,0,10.793186,-1304.5633,-4400.1444)"><flowRegion
         id="flowRegion3767"><rect
           id="rect3769"
           width="65.714287"
           height="228.57143"
           x="158.57143"
           y="423.79074" /></flowRegion><flowPara
         id="flowPara3771">·~½~½</flowPara></flowRoot>  </g>
</svg>
