<?xml version="1.0" encoding="UTF-8" standalone="no"?>
<!-- Created with Inkscape (http://www.inkscape.org/) -->

<svg
   xmlns:dc="http://purl.org/dc/elements/1.1/"
   xmlns:cc="http://creativecommons.org/ns#"
   xmlns:rdf="http://www.w3.org/1999/02/22-rdf-syntax-ns#"
   xmlns:svg="http://www.w3.org/2000/svg"
   xmlns="http://www.w3.org/2000/svg"
   xmlns:sodipodi="http://sodipodi.sourceforge.net/DTD/sodipodi-0.dtd"
   xmlns:inkscape="http://www.inkscape.org/namespaces/inkscape"
   width="361.09"
   height="342.35999"
   id="svg2"
   version="1.1"
   inkscape:version="0.48.3.1 r9886"
   sodipodi:docname="searchCamera2.svg">
  <defs
     id="defs4" />
  <sodipodi:namedview
     id="base"
     pagecolor="#ffffff"
     bordercolor="#666666"
     borderopacity="1.0"
     inkscape:pageopacity="0.0"
     inkscape:pageshadow="2"
     inkscape:zoom="2"
     inkscape:cx="236.735"
     inkscape:cy="201.00069"
     inkscape:document-units="px"
     inkscape:current-layer="layer1"
     showgrid="false"
     inkscape:snap-bbox="true"
     inkscape:window-width="1301"
     inkscape:window-height="744"
     inkscape:window-x="65"
     inkscape:window-y="24"
     inkscape:window-maximized="1" />
  <metadata
     id="metadata7">
    <rdf:RDF>
      <cc:Work
         rdf:about="">
        <dc:format>image/svg+xml</dc:format>
        <dc:type
           rdf:resource="http://purl.org/dc/dcmitype/StillImage" />
        <dc:title />
      </cc:Work>
    </rdf:RDF>
  </metadata>
  <g
     inkscape:label="Capa 1"
     inkscape:groupmode="layer"
     id="layer1"
     transform="translate(0,-710.00199)">
    <path
       style="fill:#000000;fill-rule:evenodd;stroke:#000000;stroke-width:1px;stroke-linecap:butt;stroke-linejoin:miter;stroke-opacity:1"
       d="M 127.15625 5.375 C 126.11449 5.3745538 125.07871 5.380163 124.03125 5.40625 C 56.988889 7.0759369 3.9865631 62.770139 5.65625 129.8125 C 7.3259369 196.85486 63.051389 249.85719 130.09375 248.1875 C 197.13611 246.51781 250.10719 190.82361 248.4375 123.78125 L 215.28125 124.59375 C 216.08745 174.46453 176.88698 215.79256 127.3125 217.0625 C 77.457634 218.33962 36.0171 178.62422 34.75 128.375 C 33.4829 78.125776 72.863884 36.370873 122.71875 35.09375 C 172.56405 33.816872 214.00087 73.479514 215.28125 123.71875 L 215.28125 123.75 C 215.28838 124.0326 215.27669 124.31169 215.28125 124.59375 L 248.4375 123.75 C 246.78743 57.759998 192.78739 5.4031101 127.15625 5.375 z "
       transform="translate(0,710.00199)"
       id="path2985-57" />
    <rect
       style="fill:#000000;stroke:none"
       id="rect3805"
       width="48.57143"
       height="206.42857"
       x="-558.94501"
       y="755.03357"
       rx="23.950342"
       ry="23.746229"
       transform="matrix(0.67250047,-0.74009669,0.74009669,0.67250047,0,0)" />
    <path
       style="fill:#000000;fill-rule:evenodd;stroke:#000000;stroke-width:0.64266109px;stroke-linecap:butt;stroke-linejoin:miter;stroke-opacity:1"
       d="M 125.09375 48.03125 C 124.42433 48.030965 123.73558 48.045737 123.0625 48.0625 C 79.976981 49.135543 45.926957 84.914481 47 128 C 48.073043 171.08552 83.883231 205.16679 126.96875 204.09375 C 170.05427 203.02071 204.10429 167.21052 203.03125 124.125 L 203.03125 124.09375 C 201.96344 81.690038 167.26712 48.049189 125.09375 48.03125 z M 122.75 58.6875 C 158.8921 57.768574 188.93463 86.85636 189.96875 123.75 L 190 124 C 190.90248 160.99426 162.23707 191.73491 126 192.65625 C 89.762932 193.57759 59.652483 164.33801 58.75 127.34375 C 57.847517 90.349494 86.512932 59.60884 122.75 58.6875 z "
       transform="translate(0,710.00199)"
       id="path2985-5" />
    <rect
       style="fill:#000000;stroke:none"
       id="rect3982"
       width="57.878838"
       height="31.370575"
       x="696.60956"
       y="408.16815"
       ry="15.685287"
       rx="28.939419"
       transform="matrix(0.67153883,0.74096936,-0.77875404,0.62732937,0,0)" />
    <path
       sodipodi:type="arc"
       style="fill:#000000;stroke:none"
       id="path3986"
       sodipodi:cx="171.78572"
       sodipodi:cy="427.00504"
       sodipodi:rx="19.642857"
       sodipodi:ry="19.642857"
       d="m 191.42249,426.51598 c 0.27009,10.84509 -8.30263,19.85573 -19.14772,20.12582 -10.84508,0.2701 -19.85572,-8.30262 -20.12582,-19.14771 -0.27009,-10.84509 8.30263,-19.85573 19.14772,-20.12582 10.84296,-0.27005 19.85264,8.29939 20.12568,19.14228"
       sodipodi:start="6.2582855"
       sodipodi:end="12.541194"
       sodipodi:open="true"
       transform="translate(-46.417745,412.9914)" />
  </g>
</svg>
