<?xml version="1.0" encoding="UTF-8" standalone="no"?>
<!-- Created with Inkscape (http://www.inkscape.org/) -->

<svg
   xmlns:dc="http://purl.org/dc/elements/1.1/"
   xmlns:cc="http://creativecommons.org/ns#"
   xmlns:rdf="http://www.w3.org/1999/02/22-rdf-syntax-ns#"
   xmlns:svg="http://www.w3.org/2000/svg"
   xmlns="http://www.w3.org/2000/svg"
   xmlns:sodipodi="http://sodipodi.sourceforge.net/DTD/sodipodi-0.dtd"
   xmlns:inkscape="http://www.inkscape.org/namespaces/inkscape"
   width="393"
   height="487.35999"
   id="svg3829"
   version="1.1"
   inkscape:version="0.48.3.1 r9886"
   sodipodi:docname="shoppinglist.svg">
  <defs
     id="defs3831" />
  <sodipodi:namedview
     id="base"
     pagecolor="#ffffff"
     bordercolor="#666666"
     borderopacity="1.0"
     inkscape:pageopacity="0.0"
     inkscape:pageshadow="2"
     inkscape:zoom="0.98994949"
     inkscape:cx="165.16716"
     inkscape:cy="282.71779"
     inkscape:document-units="px"
     inkscape:current-layer="layer1"
     showgrid="false"
     inkscape:window-width="1301"
     inkscape:window-height="744"
     inkscape:window-x="65"
     inkscape:window-y="24"
     inkscape:window-maximized="1" />
  <metadata
     id="metadata3834">
    <rdf:RDF>
      <cc:Work
         rdf:about="">
        <dc:format>image/svg+xml</dc:format>
        <dc:type
           rdf:resource="http://purl.org/dc/dcmitype/StillImage" />
        <dc:title />
      </cc:Work>
    </rdf:RDF>
  </metadata>
  <g
     inkscape:label="Capa 1"
     inkscape:groupmode="layer"
     id="layer1"
     transform="translate(0,-565.00127)">
    <rect
       style="fill:none;stroke:#000000;stroke-width:14.47194195;stroke-linecap:butt;stroke-linejoin:round;stroke-miterlimit:4;stroke-opacity:1;stroke-dasharray:none"
       id="rect3837"
       width="313.67087"
       height="425.09949"
       x="36.73597"
       y="599.09814" />
    <path
       sodipodi:type="arc"
       style="fill:#000000;fill-opacity:1;stroke:#000000;stroke-width:21;stroke-linecap:butt;stroke-linejoin:round;stroke-miterlimit:4;stroke-opacity:1;stroke-dasharray:none"
       id="path4349"
       sodipodi:cx="119.70308"
       sodipodi:cy="764.97375"
       sodipodi:rx="18.687822"
       sodipodi:ry="16.667517"
       d="m 138.3909,764.97375 c 0,9.20522 -8.36682,16.66752 -18.68782,16.66752 -10.321,0 -18.68782,-7.4623 -18.68782,-16.66752 0,-9.20521 8.36682,-16.66751 18.68782,-16.66751 10.321,0 18.68782,7.4623 18.68782,16.66751 z"
       transform="matrix(0.50325456,0,0,0.56425512,30.75888,295.72182)" />
    <rect
       style="fill:none;stroke:#000000;stroke-width:19.47525406;stroke-linecap:butt;stroke-linejoin:round;stroke-miterlimit:4;stroke-opacity:1;stroke-dasharray:none"
       id="rect4351"
       width="170.77327"
       height="10.524747"
       x="142.58765"
       y="722.10004" />
    <path
       sodipodi:type="arc"
       style="fill:#000000;fill-opacity:1;stroke:#000000;stroke-width:21;stroke-linecap:butt;stroke-linejoin:round;stroke-miterlimit:4;stroke-opacity:1;stroke-dasharray:none"
       id="path4349-1"
       sodipodi:cx="119.70308"
       sodipodi:cy="764.97375"
       sodipodi:rx="18.687822"
       sodipodi:ry="16.667517"
       d="m 138.3909,764.97375 c 0,9.20522 -8.36682,16.66752 -18.68782,16.66752 -10.321,0 -18.68782,-7.4623 -18.68782,-16.66752 0,-9.20521 8.36682,-16.66751 18.68782,-16.66751 10.321,0 18.68782,7.4623 18.68782,16.66751 z"
       transform="matrix(0.50325456,0,0,0.56425512,30.75888,355.72163)" />
    <rect
       style="fill:none;stroke:#000000;stroke-width:19.47525406;stroke-linecap:butt;stroke-linejoin:round;stroke-miterlimit:4;stroke-opacity:1;stroke-dasharray:none"
       id="rect4351-9"
       width="170.77327"
       height="10.524747"
       x="142.58765"
       y="782.09979" />
    <path
       sodipodi:type="arc"
       style="fill:#000000;fill-opacity:1;stroke:#000000;stroke-width:21;stroke-linecap:butt;stroke-linejoin:round;stroke-miterlimit:4;stroke-opacity:1;stroke-dasharray:none"
       id="path4349-6"
       sodipodi:cx="119.70308"
       sodipodi:cy="764.97375"
       sodipodi:rx="18.687822"
       sodipodi:ry="16.667517"
       d="m 138.3909,764.97375 c 0,9.20522 -8.36682,16.66752 -18.68782,16.66752 -10.321,0 -18.68782,-7.4623 -18.68782,-16.66752 0,-9.20521 8.36682,-16.66751 18.68782,-16.66751 10.321,0 18.68782,7.4623 18.68782,16.66751 z"
       transform="matrix(0.50325456,0,0,0.56425512,30.75888,415.72157)" />
    <rect
       style="fill:none;stroke:#000000;stroke-width:19.47525406;stroke-linecap:butt;stroke-linejoin:round;stroke-miterlimit:4;stroke-opacity:1;stroke-dasharray:none"
       id="rect4351-5"
       width="170.77327"
       height="10.524747"
       x="142.58766"
       y="842.09979" />
    <path
       sodipodi:type="arc"
       style="fill:#000000;fill-opacity:1;stroke:#000000;stroke-width:21;stroke-linecap:butt;stroke-linejoin:round;stroke-miterlimit:4;stroke-opacity:1;stroke-dasharray:none"
       id="path4349-0"
       sodipodi:cx="119.70308"
       sodipodi:cy="764.97375"
       sodipodi:rx="18.687822"
       sodipodi:ry="16.667517"
       d="m 138.3909,764.97375 c 0,9.20522 -8.36682,16.66752 -18.68782,16.66752 -10.321,0 -18.68782,-7.4623 -18.68782,-16.66752 0,-9.20521 8.36682,-16.66751 18.68782,-16.66751 10.321,0 18.68782,7.4623 18.68782,16.66751 z"
       transform="matrix(0.50325456,0,0,0.56425512,30.75888,475.72158)" />
    <rect
       style="fill:none;stroke:#000000;stroke-width:19.47525406;stroke-linecap:butt;stroke-linejoin:round;stroke-miterlimit:4;stroke-opacity:1;stroke-dasharray:none"
       id="rect4351-92"
       width="170.77327"
       height="10.524747"
       x="142.58765"
       y="902.09979" />
  </g>
</svg>
