<?xml version="1.0" encoding="UTF-8" standalone="no"?>
<!-- Created with Inkscape (http://www.inkscape.org/) -->

<svg
   xmlns:dc="http://purl.org/dc/elements/1.1/"
   xmlns:cc="http://creativecommons.org/ns#"
   xmlns:rdf="http://www.w3.org/1999/02/22-rdf-syntax-ns#"
   xmlns:svg="http://www.w3.org/2000/svg"
   xmlns="http://www.w3.org/2000/svg"
   xmlns:sodipodi="http://sodipodi.sourceforge.net/DTD/sodipodi-0.dtd"
   xmlns:inkscape="http://www.inkscape.org/namespaces/inkscape"
   width="400"
   height="400"
   id="svg2"
   version="1.1"
   inkscape:version="0.48.3.1 r9886"
   sodipodi:docname="Nuevo documento 1">
  <defs
     id="defs4" />
  <sodipodi:namedview
     id="base"
     pagecolor="#ffffff"
     bordercolor="#666666"
     borderopacity="1.0"
     inkscape:pageopacity="0.0"
     inkscape:pageshadow="2"
     inkscape:zoom="1.4"
     inkscape:cx="164.43496"
     inkscape:cy="310.76567"
     inkscape:document-units="px"
     inkscape:current-layer="layer1"
     showgrid="false"
     inkscape:window-width="1301"
     inkscape:window-height="744"
     inkscape:window-x="65"
     inkscape:window-y="24"
     inkscape:window-maximized="1" />
  <metadata
     id="metadata7">
    <rdf:RDF>
      <cc:Work
         rdf:about="">
        <dc:format>image/svg+xml</dc:format>
        <dc:type
           rdf:resource="http://purl.org/dc/dcmitype/StillImage" />
        <dc:title></dc:title>
      </cc:Work>
    </rdf:RDF>
  </metadata>
  <g
     inkscape:label="Capa 1"
     inkscape:groupmode="layer"
     id="layer1"
     transform="translate(0,-652.36218)">
    <path
       style="fill:#000000;fill-opacity:1;stroke:none"
       d="m 83.559705,887.31078 c -17.903521,0 -32.409566,14.54707 -32.409566,32.4506 0,17.90352 14.506045,32.40957 32.409566,32.40957 17.903525,0 32.450585,-14.50605 32.450585,-32.40957 0,-17.90353 -14.54706,-32.4506 -32.450585,-32.4506 z m 0.410248,11.61001 c 12.148822,0 21.989267,9.84046 21.989267,21.98927 0,12.14883 -9.840445,21.98929 -21.989267,21.98929 -12.148815,0 -21.989274,-9.84046 -21.989274,-21.98929 0,-12.14881 9.840459,-21.98927 21.989274,-21.98927 z"
       id="path3779"
       inkscape:connector-curvature="0" />
    <path
       style="fill:#000000;fill-opacity:1;stroke:none"
       d="m 246.79489,751.10332 c -13.50675,0 -24.36871,10.86196 -24.36871,24.36872 l 0,74.95227 -182.642285,0 c -13.506763,0 -24.368717,10.86195 -24.368717,24.36871 l 0,21.20981 c 0,13.50676 10.861954,24.36872 24.368717,24.36872 l 92.223685,0 c 0.0439,-21.23238 17.27961,-38.44022 38.52226,-38.44022 21.24266,0 38.47838,17.20784 38.52226,38.44022 l 26.21484,0 c 1.82029,0 3.58772,-0.19954 5.29219,-0.57435 1.99223,0.52282 4.07504,0.8205 6.23576,0.8205 l 14.35868,0 c 0.0657,-21.21368 17.29317,-38.3992 38.52227,-38.3992 20.99857,0 38.0903,16.8067 38.52225,37.70177 l 44.18369,0.45128 c 0,0 9.28826,-72.16126 -14.68687,-87.21868 -35.76967,-22.46487 -34.76496,-40.78111 -47.83489,-70.23441 l -0.28717,2.87173 c -3.73099,-8.6658 -12.33489,-14.68687 -22.39953,-14.68687 l -50.37843,0 z m 91.4032,168.81695 -33.80441,-0.3282 0,-0.082 c -2.28212,0.70277 -4.70169,1.10766 -7.22036,1.10766 l -36.01975,0 c -1.3e-4,0.0407 0,0.0824 0,0.12301 l 77.04452,0 c 0,-0.27119 0.006,-0.55066 0,-0.8205 z m -129.14599,0.45128 -77.04452,0 c -5e-5,0.027 0,0.0548 0,0.082 l 77.04452,0 c 0,-0.0271 6e-5,-0.055 0,-0.082 z m 65.92682,-158.06846 4.84092,0 c 13.50676,0 24.36872,5.43097 24.36872,12.18436 l 0,55.58857 c 0,6.75339 -10.86196,12.18436 -24.36872,12.18436 l -4.84092,0 c -13.50676,0 -24.36872,-5.43097 -24.36872,-12.18436 l 0,-55.58857 c 0,-6.75339 10.86196,-12.18436 24.36872,-12.18436 z M 83.352204,881.80826 c 21.269766,0 38.522256,17.2525 38.522256,38.52226 l -77.044519,0 c 0,-21.26976 17.252495,-38.52226 38.522263,-38.52226 z"
       id="rect3835"
       inkscape:connector-curvature="0" />
    <rect
       style="fill:#000000;fill-opacity:1;stroke:none"
       id="rect4034"
       width="194.10579"
       height="140.65637"
       x="20.496391"
       y="704.505"
       rx="18.57143"
       ry="0" />
    <path
       style="fill:#000000;fill-opacity:1;stroke:none"
       d="m 171.51564,886.62798 c -17.90352,0 -32.40956,14.54707 -32.40956,32.4506 0,17.90352 14.50604,32.40957 32.40956,32.40957 17.90352,0 32.45059,-14.50605 32.45059,-32.40957 0,-17.90353 -14.54707,-32.4506 -32.45059,-32.4506 z m 0.41024,11.61001 c 12.14882,0 21.98928,9.84046 21.98928,21.98928 0,12.14882 -9.84046,21.98928 -21.98928,21.98928 -12.14881,0 -21.98926,-9.84046 -21.98926,-21.98928 0,-12.14882 9.84045,-21.98928 21.98926,-21.98928 z"
       id="path3779-3"
       inkscape:connector-curvature="0" />
    <path
       style="fill:#000000;fill-opacity:1;stroke:none"
       d="m 299.48632,885.96493 c -17.90353,0 -32.40957,14.54706 -32.40957,32.45059 0,17.90353 14.50604,32.40958 32.40957,32.40958 17.90352,0 32.4506,-14.50605 32.4506,-32.40958 0,-17.90353 -14.54708,-32.45059 -32.4506,-32.45059 z m 0.41025,11.61001 c 12.14881,0 21.98927,9.84045 21.98927,21.98928 0,12.14881 -9.84046,21.98928 -21.98927,21.98928 -12.14883,0 -21.98928,-9.84047 -21.98928,-21.98928 0,-12.14883 9.84045,-21.98928 21.98928,-21.98928 z"
       id="path3779-5"
       inkscape:connector-curvature="0" />
  </g>
</svg>
